<?xml version="1.0" encoding="utf-8"?>
<!-- Generator: Adobe Illustrator 18.1.0, SVG Export Plug-In . SVG Version: 6.00 Build 0)  -->
<!DOCTYPE svg PUBLIC "-//W3C//DTD SVG 1.1//EN" "http://www.w3.org/Graphics/SVG/1.1/DTD/svg11.dtd">
<svg version="1.1" id="Layer_1" xmlns="http://www.w3.org/2000/svg" xmlns:xlink="http://www.w3.org/1999/xlink" x="0px" y="0px"
	 viewBox="0 0 202.8 143.2" enable-background="new 0 0 202.8 143.2" xml:space="preserve">
<g id="_x32_015">
	<path fill="#C83743" d="M80.3,139.9l5.1-5.8c1.7-1.9,2.2-2.8,2.2-4.2c0-1.7-1.1-3.1-3.3-3.1c-1.1,0-2,0.4-3,1l-0.3-0.6
		c0.9-0.6,2.1-1.1,3.4-1.1c2.7,0,4.1,1.6,4.1,3.7c0,1.6-0.6,2.6-2.5,4.7l-4.4,4.9h7.1v0.6h-8.2L80.3,139.9z"/>
	<path fill="#C83743" d="M97.2,126.8c-2.4,0-3.8,2.8-3.8,6.4s1.5,6.4,3.9,6.4c2.4,0,3.8-2.8,3.8-6.4S99.5,126.8,97.2,126.8
		 M101.9,133.2c0,4.1-1.9,7.1-4.7,7.1c-2.8,0-4.6-3-4.6-7.1c0-4.1,1.9-7.1,4.7-7.1C100,126.2,101.9,129.1,101.9,133.2"/>
	<polygon fill="#C83743" points="108.7,126.2 105,127.4 105,128.1 108.1,127.1 108.1,140.1 108.9,140.1 108.9,126.2 	"/>
	<path fill="#C83743" d="M115.5,126.4h6.1l-0.2,0.6h-5.3l-0.6,5c0.8-0.3,1.6-0.5,2.4-0.5c2.7,0,4.5,1.7,4.5,4.2c0,2.6-2,4.6-5,4.6
		c-1.4,0-2.5-0.3-3.7-0.8l0.3-0.6c1.1,0.5,2.2,0.8,3.4,0.8c2.5,0,4.1-1.6,4.1-3.9c0-2.2-1.4-3.6-3.7-3.6c-0.9,0-1.7,0.2-2.9,0.8
		l-0.2-0.1L115.5,126.4z"/>
</g>
<g id="Glifo">
	<path fill="#FFFFFF" d="M100.1,67.1c0,0.7,0.5,1.2,1.2,1.2c0.7,0,1.2-0.5,1.2-1.2c0-0.7-0.5-1.2-1.2-1.2
		C100.6,65.9,100.1,66.5,100.1,67.1"/>
	<path fill="#FFFFFF" d="M40.8,67.9c-1,0-1.9,0.6-1.9,1.3s0.8,1.3,1.9,1.3c1,0,1.9-0.6,1.9-1.3S41.8,67.9,40.8,67.9"/>
	<path fill="#FFFFFF" d="M36.3,67.9c-1.1,0-1.9,0.6-1.9,1.4s0.9,1.4,1.9,1.4c1.1,0,1.9-0.6,1.9-1.4S37.4,67.9,36.3,67.9"/>
	<path fill="#FFFFFF" d="M49.7,68.1c-0.9,0-1.5,0.5-1.5,1.1c0,0.6,0.7,1.1,1.5,1.1c0.9,0,1.5-0.5,1.5-1.1
		C51.3,68.6,50.6,68.1,49.7,68.1"/>
	<path fill="#FFFFFF" d="M54.2,68.3c-0.7,0-1.3,0.4-1.3,0.9s0.6,0.9,1.3,0.9c0.7,0,1.3-0.4,1.3-0.9S54.9,68.3,54.2,68.3"/>
	<path fill="#FFFFFF" d="M45.3,68c-1,0-1.7,0.5-1.7,1.2c0,0.7,0.8,1.2,1.7,1.2c1,0,1.7-0.5,1.7-1.2C47,68.6,46.2,68,45.3,68"/>
	<path fill="#FFFFFF" d="M58.7,68.6c-0.5,0-1,0.3-1,0.7c0,0.4,0.4,0.7,1,0.7c0.5,0,1-0.3,1-0.7C59.6,68.9,59.2,68.6,58.7,68.6"/>
	<path fill="#FFFFFF" d="M31.9,67.8c-1.1,0-2,0.6-2,1.4c0,0.8,0.9,1.4,2,1.4c1.1,0,2-0.6,2-1.4C33.8,68.5,32.9,67.8,31.9,67.8"/>
	<path fill="#FFFFFF" d="M9.5,68.3c-0.7,0-1.3,0.4-1.3,0.9c0,0.5,0.6,0.9,1.3,0.9s1.3-0.4,1.3-0.9C10.8,68.7,10.2,68.3,9.5,68.3"/>
	<path fill="#FFFFFF" d="M5,68.5c-0.5,0-1,0.3-1,0.7c0,0.4,0.4,0.7,1,0.7c0.5,0,1-0.3,1-0.7C6,68.9,5.6,68.5,5,68.5"/>
	<path fill="#FFFFFF" d="M0.5,68.8C0.2,68.8,0,69,0,69.2c0,0.2,0.2,0.4,0.5,0.4c0.3,0,0.5-0.2,0.5-0.4C1.1,69,0.9,68.8,0.5,68.8"/>
	<path fill="#FFFFFF" d="M22.9,67.9c-1,0-1.9,0.6-1.9,1.3c0,0.7,0.8,1.3,1.9,1.3c1,0,1.9-0.6,1.9-1.3C24.8,68.5,23.9,67.9,22.9,67.9
		"/>
	<path fill="#FFFFFF" d="M27.4,67.9c-1.1,0-1.9,0.6-1.9,1.4c0,0.8,0.9,1.4,1.9,1.4c1.1,0,1.9-0.6,1.9-1.4
		C29.3,68.5,28.5,67.9,27.4,67.9"/>
	<path fill="#FFFFFF" d="M14,68.1c-0.9,0-1.6,0.5-1.6,1.1s0.7,1.1,1.6,1.1c0.9,0,1.5-0.5,1.5-1.1S14.8,68.1,14,68.1"/>
	<path fill="#FFFFFF" d="M18.4,68c-1,0-1.7,0.5-1.7,1.2c0,0.7,0.8,1.2,1.7,1.2c1,0,1.7-0.5,1.7-1.2C20.2,68.6,19.4,68,18.4,68"/>
	<path fill="#FFFFFF" d="M157.5,68c-1,0-1.7,0.5-1.7,1.2c0,0.7,0.8,1.2,1.7,1.2c1,0,1.7-0.5,1.7-1.2C159.3,68.6,158.5,68,157.5,68"
		/>
	<path fill="#FFFFFF" d="M166.5,67.9c-1.1,0-1.9,0.6-1.9,1.4s0.9,1.4,1.9,1.4c1.1,0,1.9-0.6,1.9-1.4S167.6,67.9,166.5,67.9"/>
	<path fill="#FFFFFF" d="M179.9,67.9c-1,0-1.9,0.6-1.9,1.3c0,0.7,0.8,1.3,1.9,1.3c1,0,1.9-0.6,1.9-1.3
		C181.8,68.5,180.9,67.9,179.9,67.9"/>
	<path fill="#FFFFFF" d="M171,67.8c-1.1,0-2,0.6-2,1.4c0,0.8,0.9,1.4,2,1.4c1.1,0,2-0.6,2-1.4C172.9,68.5,172,67.8,171,67.8"/>
	<path fill="#FFFFFF" d="M188.8,68.1c-0.9,0-1.5,0.5-1.5,1.1s0.7,1.1,1.5,1.1c0.9,0,1.6-0.5,1.6-1.1S189.7,68.1,188.8,68.1"/>
	<path fill="#FFFFFF" d="M175.4,67.9c-1.1,0-1.9,0.6-1.9,1.4c0,0.8,0.9,1.4,1.9,1.4c1.1,0,1.9-0.6,1.9-1.4
		C177.4,68.5,176.5,67.9,175.4,67.9"/>
	<path fill="#FFFFFF" d="M202.3,68.8c-0.3,0-0.5,0.2-0.5,0.4c0,0.2,0.2,0.4,0.5,0.4c0.3,0,0.5-0.2,0.5-0.4
		C202.8,69,202.6,68.8,202.3,68.8"/>
	<path fill="#FFFFFF" d="M193.3,68.3c-0.7,0-1.3,0.4-1.3,0.9c0,0.5,0.6,0.9,1.3,0.9c0.7,0,1.3-0.4,1.3-0.9
		C194.6,68.7,194,68.3,193.3,68.3"/>
	<path fill="#FFFFFF" d="M197.8,68.5c-0.5,0-1,0.3-1,0.7c0,0.4,0.4,0.7,1,0.7c0.5,0,1-0.3,1-0.7C198.8,68.9,198.3,68.5,197.8,68.5"
		/>
	<path fill="#FFFFFF" d="M184.4,68c-1,0-1.7,0.5-1.7,1.2c0,0.7,0.8,1.2,1.7,1.2c1,0,1.7-0.5,1.7-1.2C186.1,68.6,185.3,68,184.4,68"
		/>
	<path fill="#FFFFFF" d="M126.2,69.2c0-0.9,5.9-1.8,5.3-1.8c-5.9,0-8.1,1.5-13.1,1.6c-5.9,0,4.2-2.4-1.7-2c-2.7,0.2-4.6,0.6-6.6,1.3
		c-4.1,1.4,0.3-1,1-1.5c4.5-2.8-8.7,1.5-9.9,2.4h0c-1.3-0.9-14.4-5.2-9.9-2.4c0.8,0.5,5.1,2.8,1,1.5c-2-0.7-3.9-1.1-6.6-1.3
		c-6-0.4,4.2,2.1-1.7,2c-5,0-7.2-1.5-13.1-1.6c-0.6,0,5.3,0.9,5.3,1.8c0,0.9-5.9,1.8-5.3,1.8c5.9,0,8.2-1.6,13.2-1.6
		c5.9,0-4.4,2.5,1.6,2.1c2.7-0.2,4.6-0.6,6.6-1.3c4.1-1.3-0.3,1-1.1,1.5c-4.5,2.7,8.7-1.4,10-2.4c1.2,1,14.5,5.2,10,2.4
		c-0.8-0.5-5.2-2.8-1.1-1.5c2,0.7,3.9,1.1,6.6,1.3c6,0.4-4.3-2.2,1.6-2.1c5,0,7.3,1.6,13.2,1.6C132.2,71,126.2,70.1,126.2,69.2"/>
	<path fill="#FFFFFF" d="M144.1,68.6c-0.5,0-1,0.3-1,0.7c0,0.4,0.4,0.7,1,0.7c0.5,0,1-0.3,1-0.7C145.1,68.9,144.7,68.6,144.1,68.6"
		/>
	<path fill="#FFFFFF" d="M134.7,69.1c-3.4-1-7.3-0.3-7.3,0.1C127.5,69.6,131.4,70.2,134.7,69.1c3.2,1.1,7.4,0.5,7.4,0.1
		C142.1,68.7,138.5,68.1,134.7,69.1"/>
	<path fill="#FFFFFF" d="M101.3,70.2c-0.7,0-1.2,0.5-1.2,1.2c0,0.7,0.5,1.2,1.2,1.2c0.7,0,1.2-0.5,1.2-1.2
		C102.5,70.8,101.9,70.2,101.3,70.2"/>
	<path fill="#FFFFFF" d="M148.6,68.3c-0.7,0-1.3,0.4-1.3,0.9s0.6,0.9,1.3,0.9c0.7,0,1.3-0.4,1.3-0.9S149.3,68.3,148.6,68.3"/>
	<path fill="#FFFFFF" d="M75.1,69.2c0-0.4-3.9-1.1-7.3-0.1c-3.8-1-7.4-0.4-7.4,0.1c0,0.4,4.2,1,7.4,0C71.1,70.2,75.1,69.6,75.1,69.2
		"/>
	<path fill="#FFFFFF" d="M153.1,68.1c-0.9,0-1.5,0.5-1.5,1.1c0,0.6,0.7,1.1,1.5,1.1c0.9,0,1.5-0.5,1.5-1.1
		C154.6,68.6,153.9,68.1,153.1,68.1"/>
	<path fill="#FFFFFF" d="M162,67.9c-1,0-1.9,0.6-1.9,1.3s0.8,1.3,1.9,1.3c1,0,1.9-0.6,1.9-1.3S163,67.9,162,67.9"/>
</g>
<g id="Roma">
	<path fill="#C83743" d="M19.4,28.6h2.7c6.4,0,11.2-2.9,11.2-9.7c0-5.7-4.4-9-10.9-9h-3.1V28.6z M19.4,34.7v10.1h-1.7v-13h0.7l16,13
		h-2.7L19.4,34.7z M17.7,8.3h4.8c7.5,0,12.5,4,12.5,10.5c0,7.6-5.2,11.3-13,11.3h-4.3V8.3z M37.5,44.8l-16.2-13H22
		c8.7,0,15.1-4.5,15.1-13.1c0-7.5-6.2-12.3-14.6-12.3h-6.9v38.4H14V4.9h8.7c9.8,0,16.3,5.4,16.3,13.9c0,9.6-7.4,13.9-13.6,14.3
		l14.8,11.8H37.5z"/>
	<path fill="#C83743" d="M70.8,40.5c8.5,0,15.1-6.8,15.1-15.5c0-9.1-6.7-15.8-15.3-15.8c-8.5,0-15.1,6.9-15.1,15.5
		C55.5,33.8,62.1,40.5,70.8,40.5 M70.6,7.5c9.6,0,16.9,7.4,16.9,17.3c0,9.8-7.3,17.3-16.9,17.3s-16.9-7.4-16.9-17.3
		S61.1,7.5,70.6,7.5 M70.6,44.1c10.6,0,19.1-8.6,19.1-19.3c0-10.9-8.4-19.3-19.1-19.3c-10.6,0-19.1,8.6-19.1,19.3
		C51.5,35.7,59.9,44.1,70.6,44.1 M70.8,3.9c11.5,0,20.7,9.2,20.7,20.8c0,11.8-9.4,21-21,21s-20.7-9-20.7-20.8S59.2,3.9,70.8,3.9"/>
	<path fill="#C83743" d="M124.1,36.8h-0.4l-13.6-18.6v26.6h-1.7V13.4l15.5,21h0.1l15.4-20.9v31.4h-1.7V18.3L124.1,36.8z M104.8,4.5
		h1.6L123.9,28l17.5-23.5h1.6v40.3h-1.7V7.1h-0.1l-17.3,23.8L106.5,7.1h-0.1v37.7h-1.7V4.5z"/>
	<path fill="#C83743" d="M162.5,35.8l-3.4,9h1.8l2.8-7.5h16.6l2.8,7.5h1.8l-3.4-9H162.5z M172.2,15.6l6.3,16.8h-13L172.2,15.6z
		 M163.2,33.9h17.5l-8.5-22.5L163.2,33.9z M171.4,4l-16.3,40.8h1.8l15.2-38.5h0.2l14.8,38.5h1.8L173,4H171.4z"/>
</g>
<g id="payoff">
	<path fill="#C83743" d="M11.6,100.2c0-2.3,0.6-4.7,0.8-7.1c0.4-0.3,1.2-0.6,1.6-0.6c0.3,0,0.4,0.2,0.4,0.5c0,0.5-0.4,2.1-0.7,3.7
		c-0.2,1-0.3,2.2-0.3,3.1h0.1c0.2-0.9,0.4-2.1,0.9-3.2c0.9-2.3,2.2-4,3.9-4.2c0.9,0.2,1.7,0.7,2.2,1.4c-0.3,1.7-0.9,3.6-0.9,5.6
		c0,1.7,0.4,2.9,1.2,2.9c0.9,0,2.1-1.7,3-6.9l0.6,0.1c-1.1,6.3-2.7,7.8-4.2,7.8c-1.3,0-2.6-1.1-2.6-3.8c0-2.1,0.7-4.1,0.7-4.9
		c0-0.4-0.2-0.7-0.6-0.7c-1.1,0-2.3,2.2-2.8,3.6c-0.7,1.8-1,3.8-1.1,5.5c-0.5,0.3-1,0.4-1.2,0.4C11.8,103.1,11.6,101.3,11.6,100.2"
		/>
	<path fill="#C83743" d="M30,97.6c0-2.2-1-4.1-2.1-4.1c-0.7,0-1,0.9-1,1.7c0,1.6,1.3,3.2,3,3.7C29.9,98.5,30,98.1,30,97.6
		 M25.6,93.6l0.2,0.4c-0.9,0.7-1.3,2.3-1.3,3.7c0,2.3,1,4.4,2.7,4.4c1.2,0,2-1.1,2.4-2.3c-2-0.5-3.5-2.2-3.5-4.5
		c0-1.9,1.1-3.1,2.5-3.1c1.4,0,3,1.2,3,4.1c0,0.9-0.1,1.8-0.4,2.6c1.6-0.1,2.9-1.1,3.3-3.7l0.6,0.1c-0.4,3.6-2.5,4.6-4.3,4.6
		c-0.8,1.7-2.3,3.2-4.2,3.2c-2,0-3.8-1.7-3.8-4.6C22.6,96.5,23.7,94.5,25.6,93.6"/>
	<path fill="#C83743" d="M40.7,94.4c0-0.4-0.2-0.7-0.6-0.7c-1.1,0-2.3,2.2-2.8,3.6c-0.7,1.8-1,3.8-1.1,5.5c-0.5,0.3-1,0.4-1.2,0.4
		c-0.9,0-1-1.8-1-3c0-2.3,0.6-4.7,0.8-7.1c0.4-0.3,1.2-0.6,1.6-0.6c0.3,0,0.4,0.2,0.4,0.5c0,0.5-0.4,2.1-0.7,3.7
		c-0.2,1-0.3,2.2-0.3,3.1h0.1c0.2-0.9,0.4-2.1,0.9-3.2c0.9-2.3,2.2-4,3.9-4.2c0.9,0.2,1.7,0.7,2.2,1.4c-0.3,1.7-0.9,3.6-0.9,5.6
		c0,1.7,0.4,2.9,1.2,2.9c0.7,0,1.7-0.9,2.5-3.6l0.5,0.2c-1,3.6-2.5,4.4-3.6,4.4c-1.3,0-2.6-1.1-2.6-3.8C40,97.3,40.7,95.2,40.7,94.4
		"/>
	<path fill="#C83743" d="M57.9,99.1c0.1-0.4,0.2-0.9,0.2-1.5c0-1.2-0.4-3.6-1.8-3.6c-0.8,0-1.2,0.9-1.2,1.6
		C55.1,97.1,56.2,98.7,57.9,99.1 M56.2,88.2c0-1.1-0.4-2.3-1.1-3c-0.4,1.1-0.9,2.8-1.1,3.8c-0.3,1.2-0.6,2.6-0.8,3.9
		C55,92.4,56.2,90.2,56.2,88.2 M52.1,89.3c0.4-1.5,1-3.2,1.6-4.4c0.6-0.5,1.5-1,1.9-1c0.1,0,0.2,0,0.3,0.1c0.9,0.4,1.7,1.8,1.7,3.5
		c0,2.7-1.9,5.6-4.6,6.3c-0.2,1.4-0.4,2.9-0.4,4c0,2.6,0.9,4.5,2.5,4.5c1.1,0,2-0.9,2.6-2.2c-2-0.4-3.3-2.1-3.3-4
		c0-1.5,0.9-3.1,2.6-3.1c1.9,0,2.7,2,2.7,3.7c0,0.8-0.2,1.8-0.5,2.7c1.8-0.1,3.1-1.6,3.4-4l0.6,0.1c-0.5,3.6-2.6,4.7-4.4,4.7
		c-0.8,1.6-2.3,3.1-4.2,3.1c-2,0-3.8-1.6-3.8-5.2C50.6,95.7,51.3,91.8,52.1,89.3"/>
	<path fill="#C83743" d="M66.4,99.1c0.5-1.6,1-3.5,1.3-5.1c-0.5-0.3-1.1-0.5-1.7-0.5c-0.7,0-1.4,0.2-2,0.8c-0.6,1.1-1.1,2.9-1.1,4.6
		c0,1.8,0.5,3.2,1.4,3.2C65,102.1,65.7,101.2,66.4,99.1 M61,99.3c0-2,0.8-3.8,1.8-4.9c1-1.2,2.5-1.9,4.1-1.9c1,0,1.9,0.3,2.9,0.8
		c-0.3,1.7-0.7,4.2-0.7,6c0,1.7,0.3,3,1.1,3c0.9,0,2.1-1.8,3-6.9l0.6,0.1c-1.1,6.2-2.6,7.8-4.1,7.8c-1.7,0-2.6-2.1-2.5-4.2h-0.1
		c-0.9,2.8-2,4.2-3.4,4.2C62.3,103.2,61,101.7,61,99.3"/>
	<path fill="#C83743" d="M74.1,100.6c0,1.1,0.5,1.8,1.5,1.8c1,0,1.8-0.6,1.8-1.4c0-0.8-0.6-1.4-1.9-2.4c-1.4-1.1-2.3-1.8-2.3-3
		c0-2,2.5-3.1,4.2-3.1c1.4,0,2.4,0.8,2.4,1.9c0,0.9-0.6,1.4-1.5,1.4c0-0.1,0-0.2,0-0.4c0-1.2-0.6-2-1.8-2c-1,0-1.8,0.6-1.8,1.4
		c0,0.7,0.6,1.3,2.2,2.5c1.3,1,2.2,1.6,2.2,2.8c0,1.9-2.2,3.2-4,3.2c-1,0-2.1-0.4-2.1-1.5C72.9,101.1,73.2,100.6,74.1,100.6"/>
	<path fill="#C83743" d="M81.9,93.3l-1.3,0.1c-0.1-0.1-0.1-0.3-0.1-0.4c0-0.1,0-0.3,0-0.3l1.5-0.1c0.3-1.8,0.5-3,0.7-4.1
		c0.4-0.3,1.2-0.6,1.6-0.6c0.3,0,0.4,0.1,0.4,0.4c0,0.5-0.4,2.5-0.8,4.2l3-0.2c0.1,0.1,0.1,0.2,0.1,0.4c0,0.1,0,0.3-0.1,0.5
		l-3.1,0.1c-0.3,1.9-0.5,3.7-0.5,5.2c0,2.7,0.7,3.8,1.6,3.8c1.1,0,2.7-1.8,3.6-6.9l0.6,0.1c-1.2,6.9-3.4,7.8-4.7,7.8
		c-1.3,0-3.1-1-3.1-4.6C81.3,97.2,81.6,95.3,81.9,93.3"/>
	<path fill="#C83743" d="M92.5,99.1c0.4-1.3,1-3.5,1.3-5.1c-0.5-0.3-1.1-0.5-1.7-0.5c-0.7,0-1.4,0.2-2,0.8c-0.6,1.1-1.1,2.9-1.1,4.6
		c0,1.8,0.5,3.3,1.4,3.3C91.1,102.1,91.9,101.1,92.5,99.1 M87.1,99.3c0-1.8,0.7-3.6,1.8-4.9c1-1.1,2.3-1.9,4.1-1.9
		c1,0,1.9,0.3,2.9,0.8c-0.3,1.7-0.7,4.2-0.7,6c0,1.7,0.4,3,1.2,3c0.7,0,1.6-1,2.4-3.6l0.6,0.2c-1,3.5-2.4,4.4-3.5,4.4
		c-1.6,0-2.7-1.9-2.6-4.2h-0.1c-0.9,2.8-2,4.2-3.4,4.2C88.4,103.2,87.1,101.8,87.1,99.3"/>
	<path fill="#C83743" d="M104.2,94.3c0-0.6,0-0.9-0.1-1.2c0.3-0.3,1-0.7,1.5-0.7c0.5,0,0.7,0.5,0.7,1.4c0,1.6-0.8,4-0.8,6
		c0,1.5,0.5,2.3,1.2,2.3c1,0,1.9-1.6,2.6-3.9c0.5-1.6,0.8-3.7,1-5.2c0.4-0.2,1.2-0.6,1.6-0.6c0.3,0,0.4,0.2,0.4,0.5
		c0,0.4-0.3,1.9-0.5,3.1c-0.1,0.8-0.4,2.3-0.4,3.5c0,1.5,0.4,2.7,1.2,2.7c0.9,0,2.1-1.8,3-6.9l0.6,0.1c-1.1,6.2-2.6,7.8-4.2,7.8
		c-1.8,0-2.4-2.1-2.3-4h-0.1c-0.8,2.6-2.1,4.1-3.6,4.1c-1.6,0-2.5-1.6-2.5-3.2C103.5,98.4,104.2,96.5,104.2,94.3"/>
	<path fill="#C83743" d="M115.1,100.2c0-2.3,0.6-4.7,0.8-7.1c0.4-0.3,1.2-0.6,1.6-0.6c0.3,0,0.4,0.2,0.4,0.5c0,0.5-0.4,2.1-0.7,3.7
		c-0.1,1-0.3,2.2-0.3,3.1h0.1c0.2-0.9,0.4-2.1,0.9-3.2c0.9-2.3,2.2-4,3.9-4.2c0.9,0.2,1.7,0.7,2.2,1.4c-0.3,1.7-0.9,3.6-0.9,5.6
		c0,1.7,0.4,2.9,1.2,2.9c0.9,0,2.1-1.7,3-6.9l0.6,0.1c-1.1,6.3-2.7,7.8-4.2,7.8c-1.3,0-2.6-1.1-2.6-3.8c0-2.1,0.7-4.1,0.7-4.9
		c0-0.4-0.2-0.7-0.6-0.7c-1.1,0-2.3,2.2-2.8,3.6c-0.7,1.8-1,3.8-1.1,5.5c-0.5,0.3-1,0.4-1.2,0.4
		C115.2,103.1,115.1,101.3,115.1,100.2"/>
	<path fill="#C83743" d="M131.4,99.1c0.4-1.3,1-3.5,1.3-5.1c-0.5-0.3-1.1-0.5-1.7-0.5c-0.7,0-1.4,0.2-2,0.8
		c-0.6,1.1-1.1,2.9-1.1,4.6c0,1.8,0.5,3.3,1.4,3.3C130,102.1,130.7,101.1,131.4,99.1 M126,99.3c0-1.8,0.7-3.6,1.8-4.9
		c1-1.1,2.3-1.9,4.1-1.9c1,0,1.9,0.3,2.9,0.8c-0.3,1.7-0.7,4.2-0.7,6c0,1.7,0.4,3,1.2,3c0.7,0,1.6-1,2.4-3.6l0.6,0.2
		c-1,3.5-2.4,4.4-3.5,4.4c-1.6,0-2.7-1.9-2.6-4.2h0c-0.9,2.8-2,4.2-3.4,4.2C127.2,103.2,126,101.8,126,99.3"/>
	<path fill="#C83743" d="M149.7,96.7c0-1.8-0.5-3.3-1.4-3.3c-0.6,0-0.8,0.8-0.8,1.6c0,1.4,0.7,3,2,3.6
		C149.6,98,149.7,97.4,149.7,96.7 M143.3,93.1c0.4-0.2,1.1-0.6,1.6-0.6c0.3,0,0.4,0.1,0.4,0.4c0,0.2-0.1,0.8-0.2,1.3
		c-0.2,1.3-0.5,2.9-0.5,4.2c0,1.6,0.4,3.8,2.1,3.8c1.2,0,2.1-1.2,2.7-2.6c-1.7-0.6-2.6-2.2-2.6-4c0-1.8,0.9-3.4,2.3-3.4
		c1.4,0,2.3,1.5,2.3,3.7c0,1-0.2,2-0.6,3c2,0.1,3.1-1.4,3.4-3.6l0.6,0.1c-0.3,2.9-2,4.5-4.4,4.4c-0.9,1.8-2.3,3.4-4.3,3.4
		c-2.1,0-3.4-1.9-3.4-4.6C142.5,97,143,94.9,143.3,93.1"/>
	<path fill="#C83743" d="M155.1,88.8c0-0.7,0.6-1.3,1.3-1.3c0.7,0,1.3,0.6,1.3,1.3c0,0.7-0.6,1.3-1.3,1.3
		C155.7,90.1,155.1,89.5,155.1,88.8 M154.4,93.1c0.4-0.3,1.2-0.6,1.6-0.6c0.3,0,0.4,0.2,0.4,0.5c0,0.3-0.1,1.2-0.3,2.1
		c-0.3,1.4-0.6,3.1-0.6,4.4c0,1.5,0.4,2.6,1.1,2.6c1,0,2.2-1.8,3.1-6.9l0.6,0.1c-1.1,6.2-2.6,7.8-4.2,7.8c-1.4,0-2.5-1.1-2.5-3.6
		C153.5,97.7,154.1,95.3,154.4,93.1"/>
	<path fill="#EB5D41" d="M160.5,100.6c0,1.1,0.5,1.8,1.5,1.8c1,0,1.8-0.6,1.8-1.4c0-0.8-0.6-1.4-1.9-2.4c-1.4-1.1-2.3-1.8-2.3-3
		c0-2,2.5-3.1,4.2-3.1c1.4,0,2.4,0.8,2.4,1.9c0,0.9-0.6,1.4-1.5,1.4c0-0.1,0-0.2,0-0.4c0-1.2-0.6-2-1.8-2c-1,0-1.8,0.6-1.8,1.4
		c0,0.7,0.6,1.3,2.2,2.5c1.3,1,2.2,1.6,2.2,2.8c0,1.9-2.2,3.2-4,3.2c-1,0-2.1-0.4-2.1-1.5C159.3,101.1,159.7,100.6,160.5,100.6"/>
	<path fill="#EB5D41" d="M168.9,88.8c0-0.7,0.6-1.3,1.3-1.3c0.7,0,1.3,0.6,1.3,1.3c0,0.7-0.6,1.3-1.3,1.3
		C169.4,90.1,168.9,89.5,168.9,88.8 M168.1,93.1c0.4-0.3,1.2-0.6,1.6-0.6c0.3,0,0.4,0.2,0.4,0.5c0,0.3-0.1,1.2-0.3,2.1
		c-0.3,1.4-0.6,3.1-0.6,4.4c0,1.5,0.4,2.6,1.1,2.6c1,0,2.2-1.8,3.1-6.9l0.6,0.1c-1.1,6.2-2.6,7.8-4.2,7.8c-1.4,0-2.5-1.1-2.5-3.6
		C167.3,97.7,167.9,95.3,168.1,93.1"/>
	<path fill="#C83743" d="M173.7,93.3l-1.3,0.1c-0.1-0.1-0.1-0.3-0.1-0.4c0-0.1,0-0.3,0-0.3l1.5-0.1c0.3-1.8,0.5-3,0.7-4.1
		c0.4-0.3,1.2-0.6,1.6-0.6c0.3,0,0.4,0.1,0.4,0.4c0,0.5-0.4,2.5-0.8,4.2l3-0.2c0.1,0.1,0.1,0.2,0.1,0.4c0,0.1,0,0.3-0.1,0.5
		l-3.1,0.1c-0.3,1.9-0.5,3.7-0.5,5.2c0,2.7,0.7,3.8,1.6,3.8c1.1,0,2.7-1.8,3.6-6.9l0.6,0.1c-1.2,6.9-3.4,7.8-4.7,7.8
		c-1.3,0-3.1-1-3.1-4.6C173.1,97.2,173.4,95.3,173.7,93.3"/>
	<path fill="#C83743" d="M184.3,99.1c0.4-1.3,1-3.5,1.3-5.1c-0.5-0.3-1.1-0.5-1.7-0.5c-0.7,0-1.4,0.2-2,0.8
		c-0.6,1.1-1.1,2.9-1.1,4.6c0,1.8,0.5,3.3,1.4,3.3C182.9,102.1,183.7,101.1,184.3,99.1 M178.9,99.3c0-1.8,0.7-3.6,1.8-4.9
		c1-1.1,2.3-1.9,4.1-1.9c1,0,1.9,0.3,2.9,0.8c-0.3,1.7-0.7,4.2-0.7,6c0,1.7,0.4,3,1.2,3c0.7,0,1.6-1,2.4-3.6l0.6,0.2
		c-1,3.5-2.4,4.4-3.5,4.4c-1.6,0-2.7-1.9-2.6-4.2H185c-0.9,2.8-2,4.2-3.4,4.2C180.2,103.2,178.9,101.8,178.9,99.3"/>
</g>
</svg>
