<?xml version="1.0" encoding="utf-8"?>
<!-- Generator: Adobe Illustrator 19.1.0, SVG Export Plug-In . SVG Version: 6.00 Build 0)  -->
<!DOCTYPE svg PUBLIC "-//W3C//DTD SVG 1.1//EN" "http://www.w3.org/Graphics/SVG/1.1/DTD/svg11.dtd">
<svg version="1.1" id="Layer_1" xmlns="http://www.w3.org/2000/svg" xmlns:xlink="http://www.w3.org/1999/xlink" x="0px" y="0px"
	 viewBox="-196 349.7 202.8 143.2" style="enable-background:new -196 349.7 202.8 143.2;" xml:space="preserve">
<style type="text/css">
	.st0{fill:#FFFFFF;}
	.st1{fill:#C83743;}
	.st2{fill:#EB5D41;}
</style>
<g id="Glifo">
	<path class="st0" d="M-95.9,416.8c0,0.7,0.5,1.2,1.2,1.2s1.2-0.5,1.2-1.2c0-0.7-0.5-1.2-1.2-1.2S-95.9,416.2-95.9,416.8"/>
	<path class="st0" d="M-155.2,417.6c-1,0-1.9,0.6-1.9,1.3c0,0.7,0.8,1.3,1.9,1.3c1,0,1.9-0.6,1.9-1.3
		C-153.3,418.2-154.2,417.6-155.2,417.6"/>
	<path class="st0" d="M-159.7,417.6c-1.1,0-1.9,0.6-1.9,1.4c0,0.8,0.9,1.4,1.9,1.4c1.1,0,1.9-0.6,1.9-1.4
		C-157.8,418.2-158.6,417.6-159.7,417.6"/>
	<path class="st0" d="M-146.3,417.8c-0.9,0-1.5,0.5-1.5,1.1s0.7,1.1,1.5,1.1c0.9,0,1.5-0.5,1.5-1.1
		C-144.7,418.3-145.4,417.8-146.3,417.8"/>
	<path class="st0" d="M-141.8,418c-0.7,0-1.3,0.4-1.3,0.9s0.6,0.9,1.3,0.9s1.3-0.4,1.3-0.9S-141.1,418-141.8,418"/>
	<path class="st0" d="M-150.7,417.7c-1,0-1.7,0.5-1.7,1.2c0,0.7,0.8,1.2,1.7,1.2c1,0,1.7-0.5,1.7-1.2
		C-149,418.3-149.8,417.7-150.7,417.7"/>
	<path class="st0" d="M-137.3,418.3c-0.5,0-1,0.3-1,0.7s0.4,0.7,1,0.7c0.5,0,1-0.3,1-0.7C-136.4,418.6-136.8,418.3-137.3,418.3"/>
	<path class="st0" d="M-164.1,417.5c-1.1,0-2,0.6-2,1.4c0,0.8,0.9,1.4,2,1.4c1.1,0,2-0.6,2-1.4
		C-162.2,418.2-163.1,417.5-164.1,417.5"/>
	<path class="st0" d="M-186.5,418c-0.7,0-1.3,0.4-1.3,0.9s0.6,0.9,1.3,0.9s1.3-0.4,1.3-0.9S-185.8,418-186.5,418"/>
	<path class="st0" d="M-191,418.2c-0.5,0-1,0.3-1,0.7s0.4,0.7,1,0.7c0.5,0,1-0.3,1-0.7C-190,418.6-190.4,418.2-191,418.2"/>
	<path class="st0" d="M-195.5,418.5c-0.3,0-0.5,0.2-0.5,0.4c0,0.2,0.2,0.4,0.5,0.4s0.5-0.2,0.5-0.4
		C-194.9,418.7-195.1,418.5-195.5,418.5"/>
	<path class="st0" d="M-173.1,417.6c-1,0-1.9,0.6-1.9,1.3c0,0.7,0.8,1.3,1.9,1.3c1,0,1.9-0.6,1.9-1.3
		C-171.2,418.2-172.1,417.6-173.1,417.6"/>
	<path class="st0" d="M-168.6,417.6c-1.1,0-1.9,0.6-1.9,1.4c0,0.8,0.9,1.4,1.9,1.4c1.1,0,1.9-0.6,1.9-1.4
		C-166.7,418.2-167.5,417.6-168.6,417.6"/>
	<path class="st0" d="M-182,417.8c-0.9,0-1.6,0.5-1.6,1.1s0.7,1.1,1.6,1.1s1.5-0.5,1.5-1.1S-181.2,417.8-182,417.8"/>
	<path class="st0" d="M-177.6,417.7c-1,0-1.7,0.5-1.7,1.2c0,0.7,0.8,1.2,1.7,1.2c1,0,1.7-0.5,1.7-1.2
		C-175.8,418.3-176.6,417.7-177.6,417.7"/>
	<path class="st0" d="M-38.5,417.7c-1,0-1.7,0.5-1.7,1.2c0,0.7,0.8,1.2,1.7,1.2c1,0,1.7-0.5,1.7-1.2
		C-36.7,418.3-37.5,417.7-38.5,417.7"/>
	<path class="st0" d="M-29.5,417.6c-1.1,0-1.9,0.6-1.9,1.4c0,0.8,0.9,1.4,1.9,1.4c1.1,0,1.9-0.6,1.9-1.4
		C-27.6,418.2-28.4,417.6-29.5,417.6"/>
	<path class="st0" d="M-16.1,417.6c-1,0-1.9,0.6-1.9,1.3c0,0.7,0.8,1.3,1.9,1.3c1,0,1.9-0.6,1.9-1.3
		C-14.2,418.2-15.1,417.6-16.1,417.6"/>
	<path class="st0" d="M-25,417.5c-1.1,0-2,0.6-2,1.4c0,0.8,0.9,1.4,2,1.4s2-0.6,2-1.4C-23.1,418.2-24,417.5-25,417.5"/>
	<path class="st0" d="M-7.2,417.8c-0.9,0-1.5,0.5-1.5,1.1S-8,420-7.2,420c0.9,0,1.6-0.5,1.6-1.1S-6.3,417.8-7.2,417.8"/>
	<path class="st0" d="M-20.6,417.6c-1.1,0-1.9,0.6-1.9,1.4c0,0.8,0.9,1.4,1.9,1.4c1.1,0,1.9-0.6,1.9-1.4
		C-18.6,418.2-19.5,417.6-20.6,417.6"/>
	<path class="st0" d="M6.3,418.5c-0.3,0-0.5,0.2-0.5,0.4c0,0.2,0.2,0.4,0.5,0.4s0.5-0.2,0.5-0.4C6.8,418.7,6.6,418.5,6.3,418.5"/>
	<path class="st0" d="M-2.7,418c-0.7,0-1.3,0.4-1.3,0.9s0.6,0.9,1.3,0.9s1.3-0.4,1.3-0.9S-2,418-2.7,418"/>
	<path class="st0" d="M1.8,418.2c-0.5,0-1,0.3-1,0.7s0.4,0.7,1,0.7c0.5,0,1-0.3,1-0.7C2.8,418.6,2.3,418.2,1.8,418.2"/>
	<path class="st0" d="M-11.6,417.7c-1,0-1.7,0.5-1.7,1.2c0,0.7,0.8,1.2,1.7,1.2c1,0,1.7-0.5,1.7-1.2
		C-9.9,418.3-10.7,417.7-11.6,417.7"/>
	<path class="st0" d="M-69.8,418.9c0-0.9,5.9-1.8,5.3-1.8c-5.9,0-8.1,1.5-13.1,1.6c-5.9,0,4.2-2.4-1.7-2c-2.7,0.2-4.6,0.6-6.6,1.3
		c-4.1,1.4,0.3-1,1-1.5c4.5-2.8-8.7,1.5-9.9,2.4l0,0c-1.3-0.9-14.4-5.2-9.9-2.4c0.8,0.5,5.1,2.8,1,1.5c-2-0.7-3.9-1.1-6.6-1.3
		c-6-0.4,4.2,2.1-1.7,2c-5,0-7.2-1.5-13.1-1.6c-0.6,0,5.3,0.9,5.3,1.8s-5.9,1.8-5.3,1.8c5.9,0,8.2-1.6,13.2-1.6
		c5.9,0-4.4,2.5,1.6,2.1c2.7-0.2,4.6-0.6,6.6-1.3c4.1-1.3-0.3,1-1.1,1.5c-4.5,2.7,8.7-1.4,10-2.4c1.2,1,14.5,5.2,10,2.4
		c-0.8-0.5-5.2-2.8-1.1-1.5c2,0.7,3.9,1.1,6.6,1.3c6,0.4-4.3-2.2,1.6-2.1c5,0,7.3,1.6,13.2,1.6C-63.8,420.7-69.8,419.8-69.8,418.9"
		/>
	<path class="st0" d="M-51.9,418.3c-0.5,0-1,0.3-1,0.7s0.4,0.7,1,0.7c0.5,0,1-0.3,1-0.7S-51.3,418.3-51.9,418.3"/>
	<path class="st0" d="M-61.3,418.8c-3.4-1-7.3-0.3-7.3,0.1C-68.5,419.3-64.6,419.9-61.3,418.8c3.2,1.1,7.4,0.5,7.4,0.1
		C-53.9,418.4-57.5,417.8-61.3,418.8"/>
	<path class="st0" d="M-94.7,419.9c-0.7,0-1.2,0.5-1.2,1.2c0,0.7,0.5,1.2,1.2,1.2s1.2-0.5,1.2-1.2
		C-93.5,420.5-94.1,419.9-94.7,419.9"/>
	<path class="st0" d="M-47.4,418c-0.7,0-1.3,0.4-1.3,0.9s0.6,0.9,1.3,0.9s1.3-0.4,1.3-0.9S-46.7,418-47.4,418"/>
	<path class="st0" d="M-120.9,418.9c0-0.4-3.9-1.1-7.3-0.1c-3.8-1-7.4-0.4-7.4,0.1c0,0.4,4.2,1,7.4,0
		C-124.9,419.9-120.9,419.3-120.9,418.9"/>
	<path class="st0" d="M-42.9,417.8c-0.9,0-1.5,0.5-1.5,1.1s0.7,1.1,1.5,1.1c0.9,0,1.5-0.5,1.5-1.1S-42.1,417.8-42.9,417.8"/>
	<path class="st0" d="M-34,417.6c-1,0-1.9,0.6-1.9,1.3c0,0.7,0.8,1.3,1.9,1.3c1,0,1.9-0.6,1.9-1.3C-32.1,418.2-33,417.6-34,417.6"/>
</g>
<g id="Roma">
	<path class="st1" d="M-176.6,378.3h2.7c6.4,0,11.2-2.9,11.2-9.7c0-5.7-4.4-9-10.9-9h-3.1L-176.6,378.3L-176.6,378.3z M-176.6,384.4
		v10.1h-1.7v-13h0.7l16,13h-2.7L-176.6,384.4z M-178.3,358h4.8c7.5,0,12.5,4,12.5,10.5c0,7.6-5.2,11.3-13,11.3h-4.3V358z
		 M-158.5,394.5l-16.2-13h0.7c8.7,0,15.1-4.5,15.1-13.1c0-7.5-6.2-12.3-14.6-12.3h-6.9v38.4h-1.6v-39.9h8.7
		c9.8,0,16.3,5.4,16.3,13.9c0,9.6-7.4,13.9-13.6,14.3l14.8,11.8h-2.7V394.5z"/>
	<path class="st1" d="M-125.2,390.2c8.5,0,15.1-6.8,15.1-15.5c0-9.1-6.7-15.8-15.3-15.8c-8.5,0-15.1,6.9-15.1,15.5
		C-140.5,383.5-133.9,390.2-125.2,390.2 M-125.4,357.2c9.6,0,16.9,7.4,16.9,17.3c0,9.8-7.3,17.3-16.9,17.3s-16.9-7.4-16.9-17.3
		S-134.9,357.2-125.4,357.2 M-125.4,393.8c10.6,0,19.1-8.6,19.1-19.3c0-10.9-8.4-19.3-19.1-19.3c-10.6,0-19.1,8.6-19.1,19.3
		C-144.5,385.4-136.1,393.8-125.4,393.8 M-125.2,353.6c11.5,0,20.7,9.2,20.7,20.8c0,11.8-9.4,21-21,21s-20.7-9-20.7-20.8
		C-146.2,362.8-136.8,353.6-125.2,353.6"/>
	<path class="st1" d="M-71.9,386.5h-0.4l-13.6-18.6v26.6h-1.7v-31.4l15.5,21h0.1l15.4-20.9v31.4h-1.7V368L-71.9,386.5z M-91.2,354.2
		h1.6l17.5,23.5l17.5-23.5h1.6v40.3h-1.7v-37.7h-0.1l-17.3,23.8l-17.4-23.8h-0.1v37.7h-1.7L-91.2,354.2L-91.2,354.2z"/>
	<path class="st1" d="M-33.5,385.5l-3.4,9h1.8l2.8-7.5h16.6l2.8,7.5h1.8l-3.4-9H-33.5z M-23.8,365.3l6.3,16.8h-13L-23.8,365.3z
		 M-32.8,383.6h17.5l-8.5-22.5L-32.8,383.6z M-24.6,353.7l-16.3,40.8h1.8l15.2-38.5h0.2l14.8,38.5h1.8L-23,353.7H-24.6z"/>
</g>
<g id="payoff">
	<path class="st1" d="M-184.4,449.9c0-2.3,0.6-4.7,0.8-7.1c0.4-0.3,1.2-0.6,1.6-0.6c0.3,0,0.4,0.2,0.4,0.5c0,0.5-0.4,2.1-0.7,3.7
		c-0.2,1-0.3,2.2-0.3,3.1h0.1c0.2-0.9,0.4-2.1,0.9-3.2c0.9-2.3,2.2-4,3.9-4.2c0.9,0.2,1.7,0.7,2.2,1.4c-0.3,1.7-0.9,3.6-0.9,5.6
		c0,1.7,0.4,2.9,1.2,2.9c0.9,0,2.1-1.7,3-6.9l0.6,0.1c-1.1,6.3-2.7,7.8-4.2,7.8c-1.3,0-2.6-1.1-2.6-3.8c0-2.1,0.7-4.1,0.7-4.9
		c0-0.4-0.2-0.7-0.6-0.7c-1.1,0-2.3,2.2-2.8,3.6c-0.7,1.8-1,3.8-1.1,5.5c-0.5,0.3-1,0.4-1.2,0.4C-184.2,452.8-184.4,451-184.4,449.9
		"/>
	<path class="st1" d="M-166,447.3c0-2.2-1-4.1-2.1-4.1c-0.7,0-1,0.9-1,1.7c0,1.6,1.3,3.2,3,3.7C-166.1,448.2-166,447.8-166,447.3
		 M-170.4,443.3l0.2,0.4c-0.9,0.7-1.3,2.3-1.3,3.7c0,2.3,1,4.4,2.7,4.4c1.2,0,2-1.1,2.4-2.3c-2-0.5-3.5-2.2-3.5-4.5
		c0-1.9,1.1-3.1,2.5-3.1s3,1.2,3,4.1c0,0.9-0.1,1.8-0.4,2.6c1.6-0.1,2.9-1.1,3.3-3.7l0.6,0.1c-0.4,3.6-2.5,4.6-4.3,4.6
		c-0.8,1.7-2.3,3.2-4.2,3.2c-2,0-3.8-1.7-3.8-4.6C-173.4,446.2-172.3,444.2-170.4,443.3"/>
	<path class="st1" d="M-155.3,444.1c0-0.4-0.2-0.7-0.6-0.7c-1.1,0-2.3,2.2-2.8,3.6c-0.7,1.8-1,3.8-1.1,5.5c-0.5,0.3-1,0.4-1.2,0.4
		c-0.9,0-1-1.8-1-3c0-2.3,0.6-4.7,0.8-7.1c0.4-0.3,1.2-0.6,1.6-0.6c0.3,0,0.4,0.2,0.4,0.5c0,0.5-0.4,2.1-0.7,3.7
		c-0.2,1-0.3,2.2-0.3,3.1h0.1c0.2-0.9,0.4-2.1,0.9-3.2c0.9-2.3,2.2-4,3.9-4.2c0.9,0.2,1.7,0.7,2.2,1.4c-0.3,1.7-0.9,3.6-0.9,5.6
		c0,1.7,0.4,2.9,1.2,2.9c0.7,0,1.7-0.9,2.5-3.6l0.5,0.2c-1,3.6-2.5,4.4-3.6,4.4c-1.3,0-2.6-1.1-2.6-3.8
		C-156,447-155.3,444.9-155.3,444.1"/>
	<path class="st1" d="M-138.1,448.8c0.1-0.4,0.2-0.9,0.2-1.5c0-1.2-0.4-3.6-1.8-3.6c-0.8,0-1.2,0.9-1.2,1.6
		C-140.9,446.8-139.8,448.4-138.1,448.8 M-139.8,437.9c0-1.1-0.4-2.3-1.1-3c-0.4,1.1-0.9,2.8-1.1,3.8c-0.3,1.2-0.6,2.6-0.8,3.9
		C-141,442.1-139.8,439.9-139.8,437.9 M-143.9,439c0.4-1.5,1-3.2,1.6-4.4c0.6-0.5,1.5-1,1.9-1c0.1,0,0.2,0,0.3,0.1
		c0.9,0.4,1.7,1.8,1.7,3.5c0,2.7-1.9,5.6-4.6,6.3c-0.2,1.4-0.4,2.9-0.4,4c0,2.6,0.9,4.5,2.5,4.5c1.1,0,2-0.9,2.6-2.2
		c-2-0.4-3.3-2.1-3.3-4c0-1.5,0.9-3.1,2.6-3.1c1.9,0,2.7,2,2.7,3.7c0,0.8-0.2,1.8-0.5,2.7c1.8-0.1,3.1-1.6,3.4-4l0.6,0.1
		c-0.5,3.6-2.6,4.7-4.4,4.7c-0.8,1.6-2.3,3.1-4.2,3.1c-2,0-3.8-1.6-3.8-5.2C-145.4,445.4-144.7,441.5-143.9,439"/>
	<path class="st1" d="M-129.6,448.8c0.5-1.6,1-3.5,1.3-5.1c-0.5-0.3-1.1-0.5-1.7-0.5c-0.7,0-1.4,0.2-2,0.8c-0.6,1.1-1.1,2.9-1.1,4.6
		c0,1.8,0.5,3.2,1.4,3.2C-131,451.8-130.3,450.9-129.6,448.8 M-135,449c0-2,0.8-3.8,1.8-4.9c1-1.2,2.5-1.9,4.1-1.9
		c1,0,1.9,0.3,2.9,0.8c-0.3,1.7-0.7,4.2-0.7,6c0,1.7,0.3,3,1.1,3c0.9,0,2.1-1.8,3-6.9l0.6,0.1c-1.1,6.2-2.6,7.8-4.1,7.8
		c-1.7,0-2.6-2.1-2.5-4.2h-0.1c-0.9,2.8-2,4.2-3.4,4.2C-133.7,452.9-135,451.4-135,449"/>
	<path class="st1" d="M-121.9,450.3c0,1.1,0.5,1.8,1.5,1.8s1.8-0.6,1.8-1.4c0-0.8-0.6-1.4-1.9-2.4c-1.4-1.1-2.3-1.8-2.3-3
		c0-2,2.5-3.1,4.2-3.1c1.4,0,2.4,0.8,2.4,1.9c0,0.9-0.6,1.4-1.5,1.4c0-0.1,0-0.2,0-0.4c0-1.2-0.6-2-1.8-2c-1,0-1.8,0.6-1.8,1.4
		c0,0.7,0.6,1.3,2.2,2.5c1.3,1,2.2,1.6,2.2,2.8c0,1.9-2.2,3.2-4,3.2c-1,0-2.1-0.4-2.1-1.5C-123.1,450.8-122.8,450.3-121.9,450.3"/>
	<path class="st1" d="M-114.1,443l-1.3,0.1c-0.1-0.1-0.1-0.3-0.1-0.4c0-0.1,0-0.3,0-0.3l1.5-0.1c0.3-1.8,0.5-3,0.7-4.1
		c0.4-0.3,1.2-0.6,1.6-0.6c0.3,0,0.4,0.1,0.4,0.4c0,0.5-0.4,2.5-0.8,4.2l3-0.2c0.1,0.1,0.1,0.2,0.1,0.4c0,0.1,0,0.3-0.1,0.5
		l-3.1,0.1c-0.3,1.9-0.5,3.7-0.5,5.2c0,2.7,0.7,3.8,1.6,3.8c1.1,0,2.7-1.8,3.6-6.9l0.6,0.1c-1.2,6.9-3.4,7.8-4.7,7.8
		c-1.3,0-3.1-1-3.1-4.6C-114.7,446.9-114.4,445-114.1,443"/>
	<path class="st1" d="M-103.5,448.8c0.4-1.3,1-3.5,1.3-5.1c-0.5-0.3-1.1-0.5-1.7-0.5c-0.7,0-1.4,0.2-2,0.8c-0.6,1.1-1.1,2.9-1.1,4.6
		c0,1.8,0.5,3.3,1.4,3.3C-104.9,451.8-104.1,450.8-103.5,448.8 M-108.9,449c0-1.8,0.7-3.6,1.8-4.9c1-1.1,2.3-1.9,4.1-1.9
		c1,0,1.9,0.3,2.9,0.8c-0.3,1.7-0.7,4.2-0.7,6c0,1.7,0.4,3,1.2,3c0.7,0,1.6-1,2.4-3.6l0.6,0.2c-1,3.5-2.4,4.4-3.5,4.4
		c-1.6,0-2.7-1.9-2.6-4.2h-0.1c-0.9,2.8-2,4.2-3.4,4.2C-107.6,452.9-108.9,451.5-108.9,449"/>
	<path class="st1" d="M-91.8,444c0-0.6,0-0.9-0.1-1.2c0.3-0.3,1-0.7,1.5-0.7s0.7,0.5,0.7,1.4c0,1.6-0.8,4-0.8,6
		c0,1.5,0.5,2.3,1.2,2.3c1,0,1.9-1.6,2.6-3.9c0.5-1.6,0.8-3.7,1-5.2c0.4-0.2,1.2-0.6,1.6-0.6c0.3,0,0.4,0.2,0.4,0.5
		c0,0.4-0.3,1.9-0.5,3.1c-0.1,0.8-0.4,2.3-0.4,3.5c0,1.5,0.4,2.7,1.2,2.7c0.9,0,2.1-1.8,3-6.9l0.6,0.1c-1.1,6.2-2.6,7.8-4.2,7.8
		c-1.8,0-2.4-2.1-2.3-4h-0.1c-0.8,2.6-2.1,4.1-3.6,4.1c-1.6,0-2.5-1.6-2.5-3.2C-92.5,448.1-91.8,446.2-91.8,444"/>
	<path class="st1" d="M-80.9,449.9c0-2.3,0.6-4.7,0.8-7.1c0.4-0.3,1.2-0.6,1.6-0.6c0.3,0,0.4,0.2,0.4,0.5c0,0.5-0.4,2.1-0.7,3.7
		c-0.1,1-0.3,2.2-0.3,3.1h0.1c0.2-0.9,0.4-2.1,0.9-3.2c0.9-2.3,2.2-4,3.9-4.2c0.9,0.2,1.7,0.7,2.2,1.4c-0.3,1.7-0.9,3.6-0.9,5.6
		c0,1.7,0.4,2.9,1.2,2.9c0.9,0,2.1-1.7,3-6.9l0.6,0.1c-1.1,6.3-2.7,7.8-4.2,7.8c-1.3,0-2.6-1.1-2.6-3.8c0-2.1,0.7-4.1,0.7-4.9
		c0-0.4-0.2-0.7-0.6-0.7c-1.1,0-2.3,2.2-2.8,3.6c-0.7,1.8-1,3.8-1.1,5.5c-0.5,0.3-1,0.4-1.2,0.4C-80.8,452.8-80.9,451-80.9,449.9"/>
	<path class="st1" d="M-64.6,448.8c0.4-1.3,1-3.5,1.3-5.1c-0.5-0.3-1.1-0.5-1.7-0.5c-0.7,0-1.4,0.2-2,0.8c-0.6,1.1-1.1,2.9-1.1,4.6
		c0,1.8,0.5,3.3,1.4,3.3C-66,451.8-65.3,450.8-64.6,448.8 M-70,449c0-1.8,0.7-3.6,1.8-4.9c1-1.1,2.3-1.9,4.1-1.9
		c1,0,1.9,0.3,2.9,0.8c-0.3,1.7-0.7,4.2-0.7,6c0,1.7,0.4,3,1.2,3c0.7,0,1.6-1,2.4-3.6l0.6,0.2c-1,3.5-2.4,4.4-3.5,4.4
		c-1.6,0-2.7-1.9-2.6-4.2l0,0c-0.9,2.8-2,4.2-3.4,4.2C-68.8,452.9-70,451.5-70,449"/>
	<path class="st1" d="M-46.3,446.4c0-1.8-0.5-3.3-1.4-3.3c-0.6,0-0.8,0.8-0.8,1.6c0,1.4,0.7,3,2,3.6
		C-46.4,447.7-46.3,447.1-46.3,446.4 M-52.7,442.8c0.4-0.2,1.1-0.6,1.6-0.6c0.3,0,0.4,0.1,0.4,0.4c0,0.2-0.1,0.8-0.2,1.3
		c-0.2,1.3-0.5,2.9-0.5,4.2c0,1.6,0.4,3.8,2.1,3.8c1.2,0,2.1-1.2,2.7-2.6c-1.7-0.6-2.6-2.2-2.6-4c0-1.8,0.9-3.4,2.3-3.4
		c1.4,0,2.3,1.5,2.3,3.7c0,1-0.2,2-0.6,3c2,0.1,3.1-1.4,3.4-3.6l0.6,0.1c-0.3,2.9-2,4.5-4.4,4.4c-0.9,1.8-2.3,3.4-4.3,3.4
		c-2.1,0-3.4-1.9-3.4-4.6C-53.5,446.7-53,444.6-52.7,442.8"/>
	<path class="st1" d="M-40.9,438.5c0-0.7,0.6-1.3,1.3-1.3s1.3,0.6,1.3,1.3s-0.6,1.3-1.3,1.3C-40.3,439.8-40.9,439.2-40.9,438.5
		 M-41.6,442.8c0.4-0.3,1.2-0.6,1.6-0.6c0.3,0,0.4,0.2,0.4,0.5c0,0.3-0.1,1.2-0.3,2.1c-0.3,1.4-0.6,3.1-0.6,4.4
		c0,1.5,0.4,2.6,1.1,2.6c1,0,2.2-1.8,3.1-6.9l0.6,0.1c-1.1,6.2-2.6,7.8-4.2,7.8c-1.4,0-2.5-1.1-2.5-3.6
		C-42.5,447.4-41.9,445-41.6,442.8"/>
	<path class="st2" d="M-35.5,450.3c0,1.1,0.5,1.8,1.5,1.8s1.8-0.6,1.8-1.4c0-0.8-0.6-1.4-1.9-2.4c-1.4-1.1-2.3-1.8-2.3-3
		c0-2,2.5-3.1,4.2-3.1c1.4,0,2.4,0.8,2.4,1.9c0,0.9-0.6,1.4-1.5,1.4c0-0.1,0-0.2,0-0.4c0-1.2-0.6-2-1.8-2c-1,0-1.8,0.6-1.8,1.4
		c0,0.7,0.6,1.3,2.2,2.5c1.3,1,2.2,1.6,2.2,2.8c0,1.9-2.2,3.2-4,3.2c-1,0-2.1-0.4-2.1-1.5C-36.7,450.8-36.3,450.3-35.5,450.3"/>
	<path class="st2" d="M-27.1,438.5c0-0.7,0.6-1.3,1.3-1.3s1.3,0.6,1.3,1.3s-0.6,1.3-1.3,1.3C-26.6,439.8-27.1,439.2-27.1,438.5
		 M-27.9,442.8c0.4-0.3,1.2-0.6,1.6-0.6c0.3,0,0.4,0.2,0.4,0.5c0,0.3-0.1,1.2-0.3,2.1c-0.3,1.4-0.6,3.1-0.6,4.4
		c0,1.5,0.4,2.6,1.1,2.6c1,0,2.2-1.8,3.1-6.9l0.6,0.1c-1.1,6.2-2.6,7.8-4.2,7.8c-1.4,0-2.5-1.1-2.5-3.6
		C-28.7,447.4-28.1,445-27.9,442.8"/>
	<path class="st1" d="M-22.3,443l-1.3,0.1c-0.1-0.1-0.1-0.3-0.1-0.4c0-0.1,0-0.3,0-0.3l1.5-0.1c0.3-1.8,0.5-3,0.7-4.1
		c0.4-0.3,1.2-0.6,1.6-0.6c0.3,0,0.4,0.1,0.4,0.4c0,0.5-0.4,2.5-0.8,4.2l3-0.2c0.1,0.1,0.1,0.2,0.1,0.4c0,0.1,0,0.3-0.1,0.5
		l-3.1,0.1c-0.3,1.9-0.5,3.7-0.5,5.2c0,2.7,0.7,3.8,1.6,3.8c1.1,0,2.7-1.8,3.6-6.9l0.6,0.1c-1.2,6.9-3.4,7.8-4.7,7.8s-3.1-1-3.1-4.6
		C-22.9,446.9-22.6,445-22.3,443"/>
	<path class="st1" d="M-11.7,448.8c0.4-1.3,1-3.5,1.3-5.1c-0.5-0.3-1.1-0.5-1.7-0.5c-0.7,0-1.4,0.2-2,0.8c-0.6,1.1-1.1,2.9-1.1,4.6
		c0,1.8,0.5,3.3,1.4,3.3C-13.1,451.8-12.3,450.8-11.7,448.8 M-17.1,449c0-1.8,0.7-3.6,1.8-4.9c1-1.1,2.3-1.9,4.1-1.9
		c1,0,1.9,0.3,2.9,0.8c-0.3,1.7-0.7,4.2-0.7,6c0,1.7,0.4,3,1.2,3c0.7,0,1.6-1,2.4-3.6l0.6,0.2c-1,3.5-2.4,4.4-3.5,4.4
		c-1.6,0-2.7-1.9-2.6-4.2H-11c-0.9,2.8-2,4.2-3.4,4.2C-15.8,452.9-17.1,451.5-17.1,449"/>
</g>
<g>
	<path class="st0" d="M-114.9,489.6v-0.7l5.1-5.6c1.7-1.8,2.2-2.8,2.2-4.3c0-1.8-1.1-2.9-3-2.9c-1.4,0-2.7,0.7-3.8,1.7l-0.2-1
		c1.1-0.8,2.4-1.5,4-1.5c2.5,0,3.9,1.5,3.9,3.7c0,1.7-0.7,3-2.4,4.8l-4.6,4.9h7.1l0.1,0.8H-114.9z"/>
	<path class="st0" d="M-98.6,489.8c-3.1,0-4.9-3-4.9-7.2c0-4.3,1.8-7.3,5-7.3c3.1,0,4.9,3,4.9,7.2
		C-93.7,486.8-95.5,489.8-98.6,489.8z M-98.6,476.2c-2.6,0-4,2.7-4,6.4c0,3.7,1.3,6.4,4,6.4c2.6,0,3.9-2.7,3.9-6.4
		C-94.7,478.9-96,476.2-98.6,476.2z"/>
	<path class="st0" d="M-88.3,489.6v-13l-3.1,1.3l-0.1-0.8l3.5-1.6h0.7v14.1H-88.3z"/>
	<path class="st0" d="M-78.5,481.3c2.5,0,4.2,1.6,4.2,4.1c0,2.7-1.9,4.5-4.4,4.5c-2.8,0-4.8-2.4-4.8-5.9c0-4.7,2.8-7.3,7.1-8.6
		l0.1,1c-3.7,1.1-5.7,3.2-6.1,6.4C-81.2,481.7-79.9,481.3-78.5,481.3z M-82.5,483.8c0,3,1.6,5.2,3.8,5.2c2,0,3.3-1.4,3.3-3.6
		c0-1.9-1.1-3.3-3.2-3.3c-1.4,0-2.8,0.7-3.9,1.6C-82.5,483.7-82.5,483.8-82.5,483.8z"/>
</g>
</svg>
